<svg aria-hidden="true" style="position: absolute; width: 0; height: 0; overflow: hidden;" version="1.1" xmlns="http://www.w3.org/2000/svg" xmlns:xlink="http://www.w3.org/1999/xlink">
<defs>
<symbol id="icon-btn-arrow" viewBox="0 0 32 32">
<title>btn-arrow</title>
<path fill="none" stroke="#d41443" style="stroke: var(--color1, #d41443)" stroke-linejoin="round" stroke-linecap="round" stroke-miterlimit="4" stroke-width="6.4" d="M8.271 3.2l13.7 12.8-13.7 12.8"></path>
</symbol>
<symbol id="icon-home-1" viewBox="0 0 32 32">
<title>home-1</title>
<path fill="#d31342" style="fill: var(--color2, #d31342)" d="M30.129 15.447c0.553-0.6 0.5-1.52-0.119-2.054l-13.636-11.77c-0.619-0.534-1.611-0.523-2.217 0.025l-13.682 12.372c-0.606 0.548-0.636 1.466-0.066 2.051l0.343 0.352c0.569 0.584 1.489 0.654 2.053 0.155l1.023-0.903v13.224c0 0.811 0.667 1.468 1.488 1.468h5.333c0.822 0 1.488-0.657 1.488-1.468v-9.252h6.803v9.252c-0.012 0.811 0.576 1.468 1.398 1.468h5.652c0.822 0 1.488-0.657 1.488-1.468v-13.038c0 0 0.282 0.244 0.631 0.546s1.078 0.060 1.631-0.541l0.388-0.42z"></path>
</symbol>
<symbol id="icon-close_40px" viewBox="0 0 32 32">
<title>close_40px</title>
<path d="M23.733 10.304l-1.504-1.504-5.963 5.963-5.963-5.963-1.504 1.504 5.963 5.963-5.963 5.963 1.504 1.504 5.963-5.963 5.963 5.963 1.504-1.504-5.963-5.963 5.963-5.963z"></path>
</symbol>
<symbol id="icon-menu_40px" viewBox="0 0 32 32">
<title>menu_40px</title>
<path d="M6.4 11.733v-2.133h19.2v2.133h-19.2zM6.4 17.067h19.2v-2.133h-19.2v2.133zM6.4 22.4h19.2v-2.133h-19.2v2.133z"></path>
</symbol>
<symbol id="icon-dots" viewBox="0 0 139 32">
<path fill="#fff" style="fill: var(--color1, #fff)" d="M85.333 16c0 8.837-7.163 16-16 16s-16-7.163-16-16c0-8.837 7.163-16 16-16s16 7.163 16 16z"></path>
<path fill="#fff" style="fill: var(--color1, #fff)" d="M32 16c0 8.837-7.163 16-16 16s-16-7.163-16-16c0-8.837 7.163-16 16-16s16 7.163 16 16z"></path>
<path fill="#fff" style="fill: var(--color1, #fff)" d="M138.667 16c0 8.837-7.163 16-16 16s-16-7.163-16-16c0-8.837 7.163-16 16-16s16 7.163 16 16z"></path>
</symbol>
<title>icon-dots</title>
<symbol id="icon-arrow-right2" viewBox="0 0 32 32">
<title>arrow-right2</title>
<path d="M19.414 27.414l10-10c0.781-0.781 0.781-2.047 0-2.828l-10-10c-0.781-0.781-2.047-0.781-2.828 0s-0.781 2.047 0 2.828l6.586 6.586h-19.172c-1.105 0-2 0.895-2 2s0.895 2 2 2h19.172l-6.586 6.586c-0.39 0.39-0.586 0.902-0.586 1.414s0.195 1.024 0.586 1.414c0.781 0.781 2.047 0.781 2.828 0z"></path>
</symbol>
<symbol id="icon-facebook" viewBox="0 0 32 32">
<title>facebook</title>
<path d="M19 6h5v-6h-5c-3.86 0-7 3.14-7 7v3h-4v6h4v16h6v-16h5l1-6h-6v-3c0-0.542 0.458-1 1-1z"></path>
</symbol>
<symbol id="icon-telegram" viewBox="0 0 32 32">
<title>telegram</title>
<path d="M16 0c-8.838 0-16 7.162-16 16s7.162 16 16 16 16-7.163 16-16-7.163-16-16-16zM23.863 10.969l-2.625 12.369c-0.181 0.881-0.712 1.087-1.45 0.681l-4-2.956-1.919 1.869c-0.225 0.219-0.4 0.4-0.8 0.4-0.519 0-0.431-0.194-0.606-0.688l-1.363-4.475-3.956-1.231c-0.856-0.262-0.862-0.85 0.194-1.269l15.412-5.95c0.7-0.319 1.381 0.169 1.113 1.25z"></path>
</symbol>
<symbol id="icon-github" viewBox="0 0 32 32">
<title>github</title>
<path d="M16 0.395c-8.836 0-16 7.163-16 16 0 7.069 4.585 13.067 10.942 15.182 0.8 0.148 1.094-0.347 1.094-0.77 0-0.381-0.015-1.642-0.022-2.979-4.452 0.968-5.391-1.888-5.391-1.888-0.728-1.849-1.776-2.341-1.776-2.341-1.452-0.993 0.11-0.973 0.11-0.973 1.606 0.113 2.452 1.649 2.452 1.649 1.427 2.446 3.743 1.739 4.656 1.33 0.143-1.034 0.558-1.74 1.016-2.14-3.554-0.404-7.29-1.777-7.29-7.907 0-1.747 0.625-3.174 1.649-4.295-0.166-0.403-0.714-2.030 0.155-4.234 0 0 1.344-0.43 4.401 1.64 1.276-0.355 2.645-0.532 4.005-0.539 1.359 0.006 2.729 0.184 4.008 0.539 3.054-2.070 4.395-1.64 4.395-1.64 0.871 2.204 0.323 3.831 0.157 4.234 1.026 1.12 1.647 2.548 1.647 4.295 0 6.145-3.743 7.498-7.306 7.895 0.574 0.497 1.085 1.47 1.085 2.963 0 2.141-0.019 3.864-0.019 4.391 0 0.426 0.288 0.925 1.099 0.768 6.354-2.118 10.933-8.113 10.933-15.18 0-8.837-7.164-16-16-16z"></path>
</symbol>
</defs>
</svg>
